<?xml version="1.0" standalone="no"?>
<!DOCTYPE svg PUBLIC "-//W3C//DTD SVG 20010904//EN"
 "http://www.w3.org/TR/2001/REC-SVG-20010904/DTD/svg10.dtd">
<svg version="1.0" xmlns="http://www.w3.org/2000/svg"
 width="1291.000000pt" height="1291.000000pt" viewBox="0 0 1291.000000 1291.000000"
 preserveAspectRatio="xMidYMid meet">
<metadata>
Created by potrace 1.11, written by Peter Selinger 2001-2013
</metadata>
<g transform="translate(0.000000,1291.000000) scale(0.100000,-0.100000)"
fill="#000000" stroke="none">
<path d="M5810 11900 c-19 -5 -62 -11 -95 -15 -33 -3 -134 -21 -224 -39 -136
-27 -166 -36 -172 -52 -5 -14 -23 -23 -65 -32 -65 -13 -283 -81 -326 -102 -20
-10 -25 -16 -18 -25 8 -9 0 -17 -31 -29 -62 -25 -459 -127 -469 -121 -16 10
-162 -44 -258 -96 -51 -27 -132 -74 -180 -105 -48 -30 -125 -74 -172 -96 -47
-23 -110 -57 -141 -75 -49 -30 -70 -39 -101 -42 -3 -1 -42 -27 -85 -59 -59
-44 -84 -57 -98 -52 -17 6 -12 12 33 40 28 18 52 34 52 35 0 5 -121 -35 -138
-45 -15 -8 -14 -10 6 -16 l24 -7 -29 -23 -28 -23 23 -8 c23 -9 23 -10 -17 -46
-23 -20 -47 -37 -54 -37 -8 0 -46 -25 -86 -55 -40 -30 -79 -55 -88 -55 -8 0
-58 -42 -110 -92 -97 -96 -178 -202 -166 -221 3 -5 1 -7 -5 -4 -12 8 -110 -69
-140 -110 -14 -19 -29 -27 -52 -27 -31 -1 -34 -5 -65 -76 -34 -77 -58 -101
-119 -116 -25 -6 -28 -4 -23 10 4 9 4 16 2 16 -7 0 -171 -249 -186 -283 -8
-19 -16 -24 -24 -17 -8 7 -25 -13 -59 -70 -25 -43 -74 -105 -107 -137 -33 -32
-86 -91 -117 -132 -70 -91 -199 -286 -213 -323 -6 -16 -15 -28 -20 -28 -5 0
-9 -4 -9 -8 0 -5 -32 -65 -71 -133 -39 -68 -91 -162 -117 -209 -25 -47 -63
-116 -84 -154 -24 -43 -33 -66 -23 -62 25 9 17 -12 -31 -90 -26 -41 -47 -88
-48 -104 -1 -31 -45 -76 -47 -48 0 7 -18 -36 -41 -97 -22 -60 -49 -135 -61
-165 -11 -30 -23 -86 -27 -125 -5 -51 -9 -64 -15 -47 -9 28 -20 28 -22 0 -3
-41 -13 -68 -24 -68 -6 0 -8 7 -4 18 4 12 3 14 -5 6 -6 -6 -14 -41 -17 -78 -7
-77 13 -135 53 -156 20 -11 21 -16 12 -34 -6 -12 -10 -21 -9 -21 2 0 -2 -18
-8 -40 -16 -62 -18 -85 -10 -129 5 -30 3 -45 -9 -63 -16 -22 -40 -33 -27 -13
3 6 2 10 -3 10 -7 0 -17 -41 -38 -170 -9 -59 -17 -158 -16 -200 4 -103 2 -217
-3 -240 -3 -14 -8 -70 -11 -125 -2 -55 -7 -116 -9 -135 -3 -25 -2 -31 5 -20 9
13 11 13 20 0 5 -8 10 -26 11 -40 1 -43 -2 -163 -7 -215 -7 -85 -5 -199 4
-230 5 -16 8 -74 8 -127 -1 -54 1 -98 4 -98 3 0 11 5 17 11 14 14 43 -15 43
-44 6 -268 10 -347 18 -372 10 -29 10 -29 11 -5 1 19 4 22 10 11 14 -22 3
-178 -19 -258 -4 -17 -7 -52 -7 -77 2 -46 2 -46 -15 -23 -17 20 -18 21 -15 2
14 -83 20 -95 41 -95 29 0 40 -9 59 -46 16 -32 10 -50 -18 -54 -18 -2 -6 -97
18 -147 13 -26 55 -106 93 -178 37 -71 78 -159 90 -193 15 -46 23 -59 28 -46
14 35 48 -27 106 -190 64 -181 85 -226 129 -274 34 -37 43 -66 11 -37 -11 10
-20 14 -20 8 0 -5 10 -15 22 -22 13 -6 43 -41 68 -77 25 -36 50 -71 55 -77 6
-7 26 -32 45 -57 19 -25 52 -63 75 -85 22 -22 40 -49 40 -60 -2 -58 77 -172
224 -325 104 -108 154 -176 146 -200 -5 -17 40 -72 157 -191 32 -32 58 -62 58
-67 0 -26 151 -152 231 -192 40 -21 59 -36 55 -45 -6 -18 155 -172 220 -210
27 -16 51 -31 54 -35 3 -4 46 -26 95 -51 50 -24 91 -44 93 -45 1 -1 5 -12 7
-24 2 -12 6 -23 7 -24 6 -3 163 -121 168 -126 3 -3 23 -18 45 -35 22 -16 42
-32 45 -35 15 -18 162 -107 255 -155 60 -30 104 -55 100 -55 -5 0 63 -36 151
-81 87 -44 164 -84 169 -89 6 -4 64 -35 130 -68 148 -74 261 -113 323 -111
107 3 140 2 195 -5 62 -9 75 -1 27 15 -41 15 -38 25 10 33 22 3 40 11 40 17 0
13 28 5 108 -33 34 -17 62 -34 62 -39 0 -11 2 -11 -38 0 -19 6 -32 6 -32 1 0
-19 48 -40 175 -75 72 -20 137 -42 145 -50 20 -17 66 -27 330 -70 48 -8 265
-36 320 -41 30 -3 69 -7 85 -9 175 -24 774 -27 935 -6 3 1 -8 10 -25 21 -16
11 -28 20 -25 21 3 1 21 3 40 5 19 1 63 6 96 9 42 5 64 3 69 -5 9 -15 6 -18
-35 -25 -52 -9 -52 -18 0 -10 25 4 73 20 107 36 65 31 153 49 153 32 0 -6 -25
-23 -55 -38 -30 -14 -55 -28 -55 -30 0 -5 85 18 90 25 8 10 89 45 150 65 53
18 134 24 174 13 10 -2 51 4 90 15 39 10 103 27 141 37 39 11 59 19 45 20 -14
1 -34 5 -45 9 -15 6 -6 13 47 32 37 13 64 27 62 31 -3 4 1 8 8 9 7 0 20 2 28
4 8 1 32 5 53 9 114 18 395 127 630 243 70 35 131 63 136 63 4 0 46 28 94 63
47 34 130 88 184 119 102 59 152 93 122 82 -30 -10 -31 15 -2 42 41 38 60 46
67 29 12 -32 78 -8 203 71 30 20 79 46 107 59 28 12 76 47 107 76 30 30 83 81
117 113 65 63 73 76 45 76 -17 1 -16 2 1 11 12 8 25 8 41 1 12 -6 28 -6 36 -2
17 11 284 267 464 445 132 132 192 198 258 287 26 36 27 38 8 38 -21 0 -27 16
-13 35 4 6 46 39 94 74 84 62 98 80 98 130 0 28 39 101 54 101 6 0 5 4 -2 8
-9 6 -6 18 15 48 164 236 232 350 333 559 123 254 226 531 370 995 134 431
148 480 137 473 -5 -3 -8 12 -6 40 2 25 0 43 -4 40 -17 -10 -38 20 -32 46 3
14 7 35 10 46 2 11 17 68 33 126 18 65 26 112 21 121 -4 8 -7 85 -5 171 2 85
-1 161 -6 169 -6 8 -8 -2 -6 -29 2 -28 0 -39 -6 -33 -24 24 -46 8 -87 -60 -23
-39 -54 -81 -69 -93 -24 -21 -27 -29 -25 -81 1 -38 -6 -81 -22 -129 -13 -40
-26 -79 -28 -87 -40 -164 -46 -200 -44 -261 1 -38 -1 -72 -4 -76 -4 -3 -7 4
-7 17 0 13 -3 20 -7 16 -4 -4 -6 -25 -4 -47 3 -43 -27 -199 -39 -199 -4 0 -15
-33 -25 -72 -27 -114 -100 -316 -164 -461 -54 -120 -146 -320 -159 -341 -2 -4
6 -5 18 -1 17 5 21 4 15 -6 -4 -8 2 -3 13 10 10 13 22 19 25 14 8 -13 -37 -56
-47 -46 -4 4 -4 -1 0 -10 3 -10 2 -17 -3 -15 -14 4 -63 -56 -63 -77 0 -9 5
-13 11 -10 13 8 -63 -135 -145 -273 -54 -91 -127 -182 -146 -182 -4 0 -12 -11
-18 -24 -9 -19 -8 -25 4 -30 13 -5 12 -9 -2 -31 -9 -14 -23 -25 -30 -25 -14 0
-18 -10 -15 -40 2 -26 -91 -112 -105 -97 -3 3 2 18 12 34 l17 28 -20 -20 c-36
-34 -134 -189 -129 -202 3 -7 0 -12 -6 -10 -7 1 -12 -4 -13 -11 -1 -44 -256
-337 -584 -671 -83 -85 -150 -159 -148 -165 6 -18 -83 -94 -203 -174 -134 -88
-216 -149 -245 -178 -44 -44 -114 -86 -152 -90 -21 -2 -49 -5 -61 -8 -26 -6
-162 -111 -162 -126 0 -4 -20 -29 -45 -54 -31 -33 -52 -46 -72 -46 -17 0 -36
-9 -48 -24 -22 -26 -123 -96 -138 -96 -4 0 -5 5 -2 10 4 6 -5 10 -19 10 -27 0
-36 24 -13 33 9 4 9 6 0 6 -25 2 -164 -55 -298 -121 -118 -59 -150 -71 -205
-75 -64 -6 -90 -16 -90 -36 0 -13 63 -2 151 28 40 13 76 22 81 19 35 -22 -166
-122 -247 -124 -16 -1 -84 1 -150 3 -66 3 -131 0 -144 -5 -14 -5 -45 -9 -70
-10 -25 0 -81 -11 -124 -25 -43 -13 -97 -26 -119 -29 -23 -3 -53 -11 -68 -19
-15 -8 -40 -17 -56 -20 -16 -3 -35 -7 -42 -9 -16 -3 -37 -24 -31 -31 3 -3 39
4 80 15 104 27 106 24 12 -16 -102 -42 -177 -62 -268 -68 l-70 -5 60 29 c33
16 49 27 35 25 -112 -19 -160 -24 -160 -15 0 10 47 30 70 30 11 0 20 4 20 9 0
6 -9 8 -20 6 -11 -2 -51 -5 -88 -6 -37 -1 -89 -8 -117 -15 -62 -17 -68 -17
-59 -2 5 8 0 9 -17 5 -13 -4 -42 -9 -64 -13 l-40 -5 32 18 32 18 -90 -1 c-50
-1 -106 2 -126 6 -25 6 -32 5 -25 -2 6 -6 8 -17 5 -25 -3 -8 0 -19 8 -24 10
-6 8 -9 -11 -10 -132 -8 -174 -2 -265 40 -68 32 -195 64 -195 50 0 -5 9 -9 21
-9 12 0 19 -5 16 -12 -2 -7 -9 -12 -15 -11 -6 1 -24 5 -41 8 -17 3 -66 16
-108 29 -74 23 -113 30 -158 27 -16 -2 -13 -6 14 -20 28 -15 31 -19 16 -25
-10 -3 -24 -1 -31 5 -15 13 -74 14 -157 4 -54 -6 -59 -5 -64 14 -4 15 -19 23
-62 32 -84 17 -83 17 -127 1 -37 -14 -47 -14 -95 0 -56 16 -53 22 15 33 21 3
36 8 34 10 -3 4 -71 12 -118 15 -12 0 -11 3 2 11 18 10 25 31 11 27 -33 -8
-240 42 -292 72 -10 5 -19 3 -26 -7 -23 -31 -167 -6 -181 32 -3 7 -23 21 -45
29 -21 9 -39 18 -39 20 0 13 94 -5 119 -23 32 -23 48 -26 70 -12 11 7 3 14
-31 30 -97 44 -155 63 -203 66 -54 4 -58 5 -161 30 -72 18 -100 34 -75 43 8 3
-16 13 -53 22 -92 24 -100 36 -34 49 31 6 28 9 -59 40 -82 29 -98 40 -145 90
-43 46 -68 63 -133 90 -119 48 -223 100 -284 140 -30 20 -76 48 -102 62 -51
28 -82 53 -193 156 -37 35 -112 95 -165 133 -76 55 -101 78 -120 117 -42 82
-79 112 -66 54 9 -42 -9 -46 -57 -13 -93 64 -136 119 -108 137 22 14 6 33 -76
85 -86 55 -193 158 -227 218 l-18 32 35 -20 c19 -12 56 -40 82 -63 47 -41 49
-39 11 16 -10 16 -17 30 -14 33 2 2 37 -21 76 -52 73 -56 92 -63 71 -25 -10
19 -17 23 -36 20 -8 -1 -74 51 -104 81 -14 14 -63 70 -110 125 -101 119 -128
144 -156 145 -24 0 -52 49 -35 60 16 9 -45 78 -90 101 -73 37 -155 147 -162
218 -2 16 -25 57 -50 92 -26 34 -47 71 -47 81 0 11 -20 54 -44 96 -25 42 -46
83 -48 90 -2 8 -17 29 -34 46 -51 55 -86 105 -80 115 4 6 -7 32 -23 58 -20 32
-27 51 -20 58 12 12 38 -18 77 -90 l27 -50 3 43 c3 37 -4 55 -38 112 -44 73
-73 143 -83 200 -6 31 -3 28 26 -25 30 -55 32 -57 35 -31 3 26 -9 114 -24 176
-3 14 -8 40 -11 58 -9 58 -19 42 -21 -36 -3 -120 -29 -124 -62 -11 -12 39 -30
86 -40 104 -12 22 -15 36 -8 43 7 7 3 35 -11 86 -26 94 -26 94 1 98 20 3 15
10 -40 70 -35 37 -67 80 -72 97 -11 40 -4 115 16 153 11 21 13 37 6 56 l-10
27 -11 -27 c-6 -16 -14 -28 -19 -28 -11 0 -28 69 -47 195 -9 61 -23 137 -31
170 -8 33 -16 70 -19 83 -3 12 -7 32 -10 45 -10 45 -14 89 -8 104 5 12 9 11
19 -8 22 -39 16 -1 -7 43 -13 25 -18 49 -14 65 4 17 -1 32 -18 52 -35 42 -52
133 -39 212 6 35 14 75 17 89 19 83 25 190 13 240 -2 7 3 15 10 17 6 3 12 0
12 -6 0 -6 5 -11 11 -11 7 0 9 14 5 38 -3 20 -8 69 -11 107 -7 89 -15 170 -21
215 -3 23 5 63 21 110 14 41 20 69 13 62 -18 -18 -27 -15 -38 12 -10 27 -23
123 -24 174 0 17 -1 32 -3 32 -1 0 -14 -21 -28 -47 l-25 -48 4 95 c3 52 8 103
11 113 9 22 25 22 25 0 0 -18 10 -12 14 9 1 7 7 22 14 33 12 20 12 20 27 1 21
-27 18 -66 -5 -96 -17 -21 -21 -23 -30 -10 -8 12 -9 9 -8 -12 1 -15 6 -24 10
-22 4 3 13 -7 18 -23 18 -50 33 -73 47 -73 7 0 13 -5 13 -12 0 -6 3 -9 6 -5 3
3 2 12 -2 19 -11 18 -13 59 -2 52 9 -6 11 8 8 43 -1 16 8 28 30 42 17 10 27
22 21 25 -10 7 3 53 57 186 27 68 30 89 36 230 3 85 8 182 12 215 5 53 70 324
79 333 2 2 8 -6 15 -17 8 -15 20 -21 47 -21 34 0 35 -1 20 -17 -16 -18 -67
-160 -67 -186 0 -8 -9 -43 -20 -77 -11 -34 -20 -63 -20 -64 0 -1 8 -2 19 -2
16 0 22 17 40 102 32 147 40 174 56 174 7 0 27 24 44 52 24 42 27 54 16 60
-21 12 -9 61 52 203 30 72 57 132 59 134 2 2 6 -8 9 -22 5 -18 -1 -44 -19 -82
-14 -31 -21 -53 -16 -50 18 11 43 70 47 110 12 116 22 143 90 244 37 56 75
104 83 106 8 3 85 112 171 243 158 239 190 293 209 347 l11 30 18 -40 18 -40
7 37 c9 50 91 325 110 370 l16 38 53 -34 c65 -41 78 -71 53 -123 -17 -35 -17
-36 1 -23 26 21 122 122 133 142 9 16 8 17 -14 9 -30 -12 -66 -3 -66 16 0 7
21 24 48 36 108 51 203 110 191 117 -18 12 -4 78 22 106 l22 24 21 -30 c12
-16 23 -30 26 -30 3 0 19 23 35 51 71 121 69 118 83 102 14 -14 92 -16 92 -2
0 4 44 40 98 80 53 39 89 69 80 65 -51 -18 -54 -18 -33 -2 54 44 91 85 137
155 28 42 62 89 77 104 24 26 104 87 114 87 2 0 2 -11 -1 -25 -6 -33 14 -55
50 -55 46 0 64 15 95 82 81 171 260 368 335 368 16 0 42 8 56 19 15 10 47 31
72 46 l45 28 -25 -29 c-14 -15 -29 -33 -35 -39 -106 -120 -144 -163 -163 -184
-54 -59 -118 -129 -156 -169 l-41 -44 40 8 c22 4 57 15 77 25 55 28 68 22 28
-11 -19 -17 -32 -30 -29 -30 3 0 56 23 118 50 62 28 119 50 127 50 8 0 14 7
14 14 0 15 70 74 151 129 22 16 39 31 36 34 -6 6 -140 -72 -247 -144 -51 -34
-66 -40 -68 -28 -11 49 145 183 284 246 99 45 121 36 94 -37 -13 -34 -6 -42
18 -21 20 18 134 71 172 80 22 5 23 4 6 -6 -10 -7 -28 -20 -40 -30 -20 -17
-20 -17 19 -2 22 9 56 27 75 40 19 13 62 36 95 51 57 26 115 33 294 34 8 0 -7
18 -31 40 -69 60 -105 176 -65 205 19 14 349 14 380 1 26 -12 21 -34 -23 -83
-32 -37 -38 -49 -28 -60 10 -12 13 -12 20 0 4 8 21 20 38 27 24 10 33 10 46
-1 18 -15 75 -13 85 3 4 6 33 16 65 23 52 11 55 13 24 15 l-35 2 28 8 c16 5
74 10 129 11 92 3 101 5 108 25 12 29 67 62 163 95 80 28 82 28 102 10 17 -16
39 -19 140 -21 66 -1 138 -3 160 -5 22 -2 75 -7 119 -10 198 -13 326 -39 326
-66 0 -5 12 -9 28 -9 19 0 23 3 13 9 -19 12 -6 28 42 51 58 28 153 42 282 41
155 -1 257 -23 239 -52 -3 -5 -3 -9 0 -9 2 0 36 -7 75 -15 88 -18 146 -24 282
-29 118 -4 224 -34 284 -81 43 -32 44 -45 4 -74 -30 -22 -31 -23 -82 -6 -28 9
-73 28 -99 41 -27 14 -53 22 -58 19 -4 -3 -11 1 -13 7 -4 9 -6 9 -6 2 -1 -9
-13 -9 -42 -3 -75 17 -52 2 38 -26 48 -14 111 -35 138 -45 28 -10 97 -35 155
-55 58 -21 169 -68 248 -106 143 -69 214 -94 248 -87 13 3 1 12 -38 30 -32 15
-58 30 -58 33 0 8 85 -1 99 -10 5 -3 11 0 13 7 9 26 313 -93 367 -144 12 -10
21 -30 21 -43 0 -17 12 -32 43 -53 103 -71 143 -75 80 -9 -26 28 -32 38 -18
33 11 -4 40 -15 65 -23 78 -27 234 -103 273 -134 20 -16 37 -28 37 -25 0 14
-85 100 -100 101 -10 1 -58 27 -107 57 -108 68 -133 81 -140 74 -3 -3 -20 9
-37 27 -17 18 -58 52 -91 76 -33 24 -74 57 -91 73 -19 18 -34 26 -38 19 -4 -6
-24 -1 -55 15 -61 30 -70 30 -43 1 12 -13 19 -26 16 -30 -7 -7 -314 99 -328
113 -7 7 -3 10 9 10 40 0 6 13 -70 27 -27 4 -105 68 -105 86 0 4 8 7 18 7 16
0 -56 35 -213 101 -73 32 -178 58 -405 104 -74 15 -144 31 -155 36 -30 13 -95
28 -145 34 -68 8 -132 16 -160 21 -14 2 -50 7 -80 10 -52 5 -147 22 -180 32
-8 3 -33 6 -55 7 -124 7 -122 7 -95 14 38 12 -76 20 -268 20 -135 -1 -167 2
-181 15 -15 13 -48 16 -197 16 -235 0 -214 0 -334 4 -58 2 -121 0 -140 -4z
m-1410 -430 c-8 -5 -19 -10 -25 -10 -5 0 -3 5 5 10 8 5 20 10 25 10 6 0 3 -5
-5 -10z m-3120 -3841 c-10 -34 -20 -50 -20 -31 0 14 18 62 24 62 3 0 1 -14 -4
-31z m249 -3052 c24 -44 27 -69 7 -61 -17 7 -26 25 -36 77 -9 43 -2 39 29 -16z
m6178 -3543 c-3 -3 -12 -4 -19 -1 -8 3 -5 6 6 6 11 1 17 -2 13 -5z"/>
<path d="M7270 11631 c0 -11 50 -21 108 -21 53 0 51 9 -4 16 -22 2 -54 6 -71
9 -18 3 -33 1 -33 -4z"/>
<path d="M5257 11603 c-14 -13 -7 -53 8 -53 12 0 14 7 9 28 -8 33 -9 34 -17
25z"/>
<path d="M7015 11605 c6 -2 23 -6 39 -10 39 -8 23 -20 -27 -20 -23 0 -43 -4
-44 -10 -1 -6 10 -8 25 -5 15 2 82 4 150 3 67 0 122 1 122 4 0 15 -85 34 -173
38 -56 2 -97 2 -92 0z"/>
<path d="M7355 11510 l-50 -6 35 -8 c20 -4 56 -6 80 -4 45 3 45 3 15 13 -16 6
-52 8 -80 5z"/>
<path d="M7788 11503 c7 -3 16 -2 19 1 4 3 -2 6 -13 5 -11 0 -14 -3 -6 -6z"/>
<path d="M7756 11454 c-9 -23 -8 -24 26 -24 l31 0 -23 20 c-28 24 -26 24 -34
4z"/>
<path d="M8520 11434 c0 -3 20 -14 45 -25 37 -16 48 -18 64 -7 19 12 17 13
-22 25 -44 13 -87 17 -87 7z"/>
<path d="M8840 11116 c53 -34 70 -42 70 -31 0 4 -94 56 -115 63 -5 2 15 -13
45 -32z"/>
<path d="M9244 11091 c20 -22 36 -27 36 -13 0 5 -12 14 -27 21 -28 13 -28 13
-9 -8z"/>
<path d="M8950 11066 c0 -3 9 -10 20 -16 11 -6 20 -8 20 -6 0 3 -9 10 -20 16
-11 6 -20 8 -20 6z"/>
<path d="M9336 10897 c8 -21 104 -79 121 -73 23 9 2 29 -61 60 -60 30 -67 31
-60 13z"/>
<path d="M9280 10847 c0 -2 11 -13 25 -25 l25 -22 0 25 c0 20 -5 25 -25 25
-14 0 -25 -1 -25 -3z"/>
<path d="M9660 10811 c0 -16 30 -35 41 -24 6 6 1 13 -16 21 -14 6 -25 8 -25 3z"/>
<path d="M3668 10771 c-51 -19 -132 -86 -123 -102 16 -25 90 12 104 53 5 15
23 34 40 43 17 8 31 18 31 20 0 3 -1 5 -2 4 -2 0 -24 -9 -50 -18z"/>
<path d="M9527 10769 c7 -7 15 -10 18 -7 3 3 -2 9 -12 12 -14 6 -15 5 -6 -5z"/>
<path d="M9535 10651 c-3 -5 22 -24 56 -42 50 -27 58 -34 43 -40 -11 -4 -13
-8 -6 -8 42 -3 124 -51 181 -108 64 -65 93 -79 117 -56 13 13 15 29 11 72 -3
31 -8 64 -12 74 -12 29 8 19 65 -35 30 -28 73 -67 94 -87 33 -31 40 -29 14 4
-5 6 -24 31 -44 58 -39 52 -92 84 -142 85 -18 0 -54 13 -79 28 l-47 27 20 -25
c10 -14 38 -49 62 -77 23 -29 42 -57 42 -63 0 -24 -123 73 -151 119 -12 18
-24 31 -29 28 -4 -2 -35 6 -68 20 -71 29 -119 39 -127 26z"/>
<path d="M9840 10645 c0 -9 59 -35 77 -35 17 1 17 1 0 11 -22 13 -77 29 -77
24z"/>
<path d="M10238 10276 c26 -25 49 -42 52 -39 6 6 -78 83 -91 83 -4 0 13 -20
39 -44z"/>
<path d="M9990 10293 c0 -16 57 -65 64 -55 3 5 -2 16 -12 24 -39 32 -52 40
-52 31z"/>
<path d="M10279 10285 c17 -33 31 -51 31 -40 0 6 -10 21 -21 35 -13 17 -17 18
-10 5z"/>
<path d="M10180 10240 c0 -31 130 -123 148 -106 3 3 0 6 -6 6 -6 0 -17 10 -23
23 -9 18 -9 20 2 10 19 -19 32 -16 24 4 -4 12 6 7 26 -12 l32 -30 -27 36 c-18
24 -43 43 -74 54 -69 25 -102 29 -102 15z"/>
<path d="M10538 10085 c12 -16 45 -61 72 -98 47 -66 67 -74 54 -21 -6 25 -34
54 -114 120 l-35 29 23 -30z"/>
<path d="M10440 10075 c8 -11 20 -25 25 -31 6 -6 37 -45 69 -88 32 -42 63 -76
69 -76 5 0 -5 15 -22 32 -18 18 -27 34 -22 36 18 6 1 29 -67 88 -37 32 -60 50
-52 39z"/>
<path d="M2462 9819 l2 -81 22 44 c12 24 37 58 55 76 l33 32 -35 1 c-19 0 -44
2 -57 5 -22 4 -22 2 -20 -77z"/>
<path d="M10499 9843 c12 -24 25 -42 29 -41 4 1 22 -12 39 -30 18 -19 37 -31
42 -28 8 6 -32 51 -104 116 l-27 25 21 -42z"/>
<path d="M10650 9835 c0 -13 31 -36 41 -33 7 2 0 12 -15 21 -14 10 -26 15 -26
12z"/>
<path d="M10881 9570 c0 -14 3 -32 9 -40 15 -24 18 -7 4 30 -11 31 -13 32 -13
10z"/>
<path d="M6940 7120 l0 -2335 -193 -193 -192 -192 -846 0 -846 0 0 -535 0
-535 1072 0 1072 0 502 501 501 502 0 2562 0 2561 -535 0 -535 0 0 -2336z"/>
<path d="M10949 9373 c23 -45 41 -63 41 -39 0 8 -14 30 -31 48 l-31 33 21 -42z"/>
<path d="M10897 9363 c-2 -4 -3 -29 -1 -56 2 -38 10 -54 39 -84 34 -35 49 -72
23 -57 -7 4 -2 -5 11 -19 36 -39 37 -25 6 39 -16 32 -38 86 -50 121 -13 36
-25 61 -28 56z"/>
<path d="M11030 9308 c0 -3 13 -21 30 -39 16 -19 30 -29 30 -23 0 5 -13 23
-30 39 -16 16 -30 26 -30 23z"/>
<path d="M11101 9265 c0 -17 10 -43 24 -60 31 -37 31 -25 0 40 -23 46 -24 48
-24 20z"/>
<path d="M11055 9113 c8 -32 25 -46 40 -33 7 6 17 5 25 -3 8 -6 6 -1 -5 13
-43 54 -71 65 -60 23z"/>
<path d="M11414 8709 c4 -28 50 -109 61 -109 2 0 -2 18 -10 40 -8 22 -12 40
-9 40 3 0 -3 14 -13 30 -22 39 -36 38 -29 -1z"/>
<path d="M11376 8677 c10 -15 23 -27 28 -27 12 0 -18 43 -34 48 -8 3 -6 -5 6
-21z"/>
<path d="M11468 8489 c3 -23 1 -30 -7 -24 -7 4 -3 -11 8 -33 39 -77 50 -58 20
36 -15 49 -27 60 -21 21z"/>
<path d="M11547 8371 c9 -22 21 -42 27 -44 7 -3 3 14 -9 39 -25 54 -39 58 -18
5z"/>
<path d="M11524 7987 c3 -10 6 -29 6 -41 0 -12 6 -31 14 -42 13 -17 14 -14 5
25 -5 24 -14 51 -20 60 -9 14 -10 13 -5 -2z"/>
<path d="M11580 7942 c0 -18 20 -90 44 -161 41 -121 62 -202 58 -227 -1 -6 9
-21 23 -34 31 -29 31 -26 -1 79 -61 202 -124 375 -124 343z"/>
<path d="M11750 7241 c0 -5 5 -13 10 -16 6 -3 10 -2 10 4 0 5 -4 13 -10 16 -5
3 -10 2 -10 -4z"/>
<path d="M11900 6387 c0 -8 7 -21 16 -28 14 -11 15 -10 12 11 -3 26 -28 41
-28 17z"/>
<path d="M11850 6303 c0 -43 9 -53 27 -30 7 8 5 21 -8 42 l-19 30 0 -42z"/>
<path d="M11888 6085 c-3 -14 -2 -25 2 -25 4 0 10 11 12 25 3 14 2 25 -2 25
-4 0 -10 -11 -12 -25z"/>
<path d="M1483 4925 c0 -22 2 -30 4 -17 2 12 2 30 0 40 -3 9 -5 -1 -4 -23z"/>
<path d="M1630 4210 c0 -5 5 -10 11 -10 5 0 7 5 4 10 -3 6 -8 10 -11 10 -2 0
-4 -4 -4 -10z"/>
<path d="M2028 3615 c-4 -20 -2 -23 8 -14 7 6 10 17 7 25 -7 20 -10 18 -15
-11z"/>
<path d="M2790 2755 c0 -12 40 -48 46 -42 4 4 -1 16 -11 27 -17 19 -35 26 -35
15z"/>
<path d="M3490 2121 c0 -5 11 -11 25 -13 20 -4 23 -3 14 8 -13 16 -39 19 -39
5z"/>
<path d="M7179 1241 c-36 -10 -79 -17 -95 -16 -16 1 -41 -4 -56 -12 -15 -7
-37 -13 -49 -13 -12 0 -20 -3 -16 -6 14 -14 277 36 302 58 14 12 -12 9 -86
-11z"/>
</g>
</svg>
